<?xml version="1.0" standalone="no"?>
<svg xmlns="http://www.w3.org/2000/svg" viewBox="0 0 112.057 29" width="112.057" height="29"><g fill="#212428" color="#212428" transform="translate(0, 0) scale(0.3020834)"><svg width="96.0" height="96.0" x="0.0" y="0.0" viewBox="0 0 96 96"><path d="M48 16c17.644 0 32 14.356 32 32s-14.356 32-32 32-32-14.356-32-32 14.356-32 32-32zM48 12c-19.884 0-36 16.116-36 36s16.116 36 36 36c19.884 0 36-16.116 36-36s-16.116-36-36-36v0z" fill="currentColor"></path><path d="M48.168 65.72c-6.324 0-10.572-3.68-10.572-9.148 0-1.096 0.896-2 2-2s2 0.904 2 2c0 4.772 5.032 5.148 6.572 5.148s6.576-0.376 6.576-5.148c0-2.976-1.164-3.664-6.080-6.088l-2.752-1.364c-4.828-2.384-8.316-4.104-8.316-9.68 0-5.504 4.248-9.204 10.572-9.204 6.252 0 10.452 3.7 10.452 9.204 0 1.104-0.896 2-2 2s-2-0.896-2-2c0-4.828-4.94-5.204-6.452-5.204-3.176 0-6.572 1.368-6.572 5.204 0 2.98 1.164 3.668 6.084 6.092l2.756 1.368c4.82 2.38 8.304 4.096 8.304 9.672 0.004 5.468-4.248 9.148-10.572 9.148z" fill="currentColor"></path><path d="M48 34c-1.104 0-2-0.896-2-2v-4c0-1.104 0.896-2 2-2s2 0.896 2 2v4c0 1.104-0.896 2-2 2z" fill="currentColor"></path><path d="M48 70c-1.104 0-2-0.9-2-2v-4c0-1.1 0.896-2 2-2s2 0.9 2 2v4c0 1.1-0.896 2-2 2z" fill="currentColor"></path><path d="M48 4c24.256 0 44 19.74 44 44 0 24.264-19.744 44-44 44-24.26 0-44-19.736-44-44 0-24.26 19.74-44 44-44zM48 0c-26.508 0-48 21.492-48 48s21.492 48 48 48 48-21.492 48-48-21.492-48-48-48v0z" fill="currentColor"></path></svg></g><line x1="41" y1="1" x2="41" y2="28" stroke="#198754" stroke-linecap="round"></line><path fill="#198754" fill-rule="nonzero" d="M4.70 17.21L4.70 17.21Q3.38 17.21 2.32 16.55Q1.25 15.89 0.62 14.78Q0 13.68 0 12.31L0 12.31L0.02 4.82Q0.02 3.50 0.64 2.41Q1.25 1.32 2.32 0.66Q3.38 0 4.70 0L4.70 0Q6.02 0 7.08 0.65Q8.14 1.30 8.76 2.39Q9.38 3.48 9.38 4.82L9.38 4.82L9.38 5.93Q9.38 6.02 9.29 6.02L9.29 6.02L6.60 6.02Q6.50 6.02 6.50 5.93L6.50 5.93L6.50 4.82Q6.50 4.03 5.99 3.46Q5.47 2.88 4.70 2.88L4.70 2.88Q3.84 2.88 3.38 3.47Q2.93 4.06 2.93 4.82L2.93 4.82L2.93 12.31Q2.93 13.20 3.44 13.75Q3.96 14.30 4.70 14.30L4.70 14.30Q5.47 14.30 5.99 13.69Q6.50 13.08 6.50 12.31L6.50 12.31L6.50 11.21Q6.50 11.11 6.60 11.11L6.60 11.11L9.31 11.11Q9.41 11.11 9.41 11.21L9.41 11.21L9.41 12.31Q9.41 13.68 8.77 14.78Q8.14 15.89 7.08 16.55Q6.02 17.21 4.70 17.21ZM13.97 16.97L11.26 16.97Q11.16 16.97 11.16 16.85L11.16 16.85L11.21 0.36Q11.21 0.26 11.30 0.26L11.30 0.26L16.15 0.26Q17.45 0.26 18.54 0.90Q19.63 1.54 20.28 2.60Q20.93 3.67 20.93 5.02L20.93 5.02Q20.93 5.90 20.66 6.61Q20.40 7.32 20.04 7.81Q19.68 8.30 19.39 8.54L19.39 8.54Q20.69 9.98 20.69 11.93L20.69 11.93L20.71 16.85Q20.71 16.97 20.59 16.97L20.59 16.97L17.88 16.97Q17.78 16.97 17.78 16.90L17.78 16.90L17.78 11.93Q17.78 11.06 17.17 10.43Q16.56 9.79 15.67 9.79L15.67 9.79L14.09 9.79L14.06 16.85Q14.06 16.97 13.97 16.97L13.97 16.97ZM14.09 3.14L14.09 6.91L16.15 6.91Q16.90 6.91 17.47 6.36Q18.05 5.81 18.05 5.02L18.05 5.02Q18.05 4.25 17.48 3.70Q16.92 3.14 16.15 3.14L16.15 3.14L14.09 3.14ZM27 16.97L24.24 16.97Q24.17 16.97 24.17 16.87L24.17 16.87L24.19 10.06L20.98 0.36Q20.95 0.26 21.05 0.26L21.05 0.26L23.71 0.26Q23.83 0.26 23.86 0.36L23.86 0.36L25.63 6.82L27.43 0.36Q27.46 0.26 27.55 0.26L27.55 0.26L30.24 0.26Q30.34 0.26 30.31 0.36L30.31 0.36L27.07 9.96L27.10 16.87Q27.10 16.97 27 16.97L27 16.97ZM34.44 16.97L31.75 16.97Q31.63 16.97 31.63 16.85L31.63 16.85L31.68 0.36Q31.68 0.26 31.78 0.26L31.78 0.26L36.38 0.26Q38.59 0.26 39.88 1.61Q41.16 2.95 41.16 5.26L41.16 5.26Q41.16 6.96 40.49 8.21Q39.82 9.46 38.74 10.13Q37.66 10.80 36.38 10.80L36.38 10.80L34.56 10.80L34.56 16.85Q34.56 16.97 34.44 16.97L34.44 16.97ZM34.56 3.14L34.56 7.90L36.38 7.90Q37.15 7.90 37.72 7.16Q38.28 6.43 38.28 5.26L38.28 5.26Q38.28 4.32 37.78 3.72Q37.27 3.12 36.38 3.12L36.38 3.12L34.56 3.14ZM47.66 16.97L44.95 16.97Q44.86 16.97 44.86 16.85L44.86 16.85L44.86 3.17L41.74 3.17Q41.62 3.17 41.62 3.05L41.62 3.05L41.64 0.36Q41.64 0.26 41.74 0.26L41.74 0.26L50.86 0.26Q50.98 0.26 50.98 0.36L50.98 0.36L50.98 3.05Q50.98 3.17 50.88 3.17L50.88 3.17L47.74 3.17L47.76 16.85Q47.76 16.97 47.66 16.97L47.66 16.97ZM56.35 17.21L56.35 17.21Q55.06 17.21 53.99 16.55Q52.92 15.89 52.27 14.80Q51.62 13.70 51.62 12.38L51.62 12.38L51.65 4.78Q51.65 3.46 52.28 2.38Q52.92 1.30 54.00 0.65Q55.08 0 56.35 0L56.35 0Q57.65 0 58.70 0.65Q59.76 1.30 60.40 2.38Q61.03 3.46 61.03 4.78L61.03 4.78L61.06 12.38Q61.06 13.70 60.42 14.80Q59.78 15.89 58.72 16.55Q57.65 17.21 56.35 17.21ZM56.35 14.30L56.35 14.30Q57.07 14.30 57.61 13.72Q58.15 13.13 58.15 12.38L58.15 12.38L58.13 4.78Q58.13 3.98 57.62 3.43Q57.12 2.88 56.35 2.88L56.35 2.88Q55.61 2.88 55.08 3.42Q54.55 3.96 54.55 4.78L54.55 4.78L54.55 12.38Q54.55 13.18 55.08 13.74Q55.61 14.30 56.35 14.30Z" transform="translate(51, 5.897)"></path></svg>